# Blender v2.78 (sub 0) OBJ File: ''
# www.blender.org
mtllib moon.mtl
o Sphere
v -0.329244 0.425338 -0.965918
v -0.464554 -0.937244 -0.177768
v 0.209857 0.983978 -0.286802
v 0.394811 -0.737790 -0.684787
v 0.770814 0.322291 -0.704189
v 1.019008 0.376078 0.085596
v 0.910546 -0.517145 0.286976
v 0.330811 0.868611 0.444585
v 0.376694 0.247419 0.980801
v -0.264159 1.010226 0.004915
v -0.381618 0.608955 0.769574
v -0.251986 -0.669927 0.824449
v -0.848038 -0.331147 0.612122
v 0.160930 -1.011798 0.192930
v -0.927457 0.511998 0.115066
v -0.976248 -0.030688 -0.390646
v -0.491379 -0.468458 -0.793070
vn 0.2218 -0.0964 -0.9703
vn 0.2327 0.6523 -0.7213
vn 0.8662 -0.3144 -0.3884
vn 0.6529 0.7136 -0.2538
vn 0.5570 -0.8234 -0.1086
vn 0.8097 0.0338 0.5858
vn 0.4251 -0.4273 0.7979
vn -0.1193 0.8866 0.4469
vn -0.2783 -0.0227 0.9602
vn -0.5319 0.7807 0.3280
vn -0.8663 -0.4980 -0.0385
vn -0.5942 0.7059 -0.3854
vn -0.1670 -0.7878 -0.5929
vn 0.0544 -0.9572 -0.2843
vn 0.9421 -0.1784 -0.2839
vn 0.5918 0.8056 0.0292
vn 0.6569 0.5199 0.5461
vn 0.1359 0.9818 0.1324
vn 0.3768 -0.6888 0.6193
vn 0.1033 0.6543 0.7492
vn -0.3096 0.0504 0.9495
vn -0.2881 -0.9083 0.3034
vn -0.7577 0.2770 0.5909
vn -0.5519 -0.7691 0.3222
vn -0.9925 -0.0227 0.1201
vn -0.7722 -0.5212 -0.3634
vn -0.7463 0.4885 -0.4522
vn -0.6532 -0.0278 -0.7567
vn -0.2532 0.8361 -0.4867
vn 0.0588 -0.1998 -0.9781
usemtl Material.001
s off
f 1//1 5//1 4//1
f 3//2 5//2 1//2
f 5//3 7//3 4//3
f 3//4 6//4 5//4
f 4//5 7//5 14//5
f 6//6 9//6 7//6
f 9//7 12//7 7//7
f 10//8 11//8 8//8
f 11//9 13//9 9//9
f 11//10 10//10 15//10
f 13//11 16//11 2//11
f 15//12 10//12 1//12
f 17//13 4//13 2//13
f 2//14 4//14 14//14
f 5//15 6//15 7//15
f 3//16 8//16 6//16
f 6//17 8//17 9//17
f 3//18 10//18 8//18
f 14//19 7//19 12//19
f 8//20 11//20 9//20
f 12//21 9//21 13//21
f 14//22 12//22 2//22
f 13//23 11//23 15//23
f 12//24 13//24 2//24
f 13//25 15//25 16//25
f 2//26 16//26 17//26
f 16//27 15//27 1//27
f 16//28 1//28 17//28
f 1//29 10//29 3//29
f 17//30 1//30 4//30
